<?xml version="1.0" standalone="no"?>
<!DOCTYPE svg PUBLIC "-//W3C//DTD SVG 20010904//EN"
 "http://www.w3.org/TR/2001/REC-SVG-20010904/DTD/svg10.dtd">
<svg version="1.0" xmlns="http://www.w3.org/2000/svg"
 width="1600.000000pt" height="1200.000000pt" viewBox="0 0 1600.000000 1200.000000"
 preserveAspectRatio="xMidYMid meet">
<metadata>
Created by potrace 1.16, written by Peter Selinger 2001-2019
</metadata>
<g transform="translate(0.000000,1200.000000) scale(0.100000,-0.100000)"
fill="#000000" stroke="none">
<path d="M0 6000 l0 -6000 8000 0 8000 0 0 6000 0 6000 -8000 0 -8000 0 0
-6000z m6355 4696 c356 -65 740 -247 1163 -550 260 -187 503 -394 781 -666
l134 -131 131 129 c118 116 163 159 317 297 359 325 811 625 1144 760 50 20
99 40 110 45 32 14 153 49 235 67 111 25 392 25 480 -1 360 -103 591 -413 660
-886 47 -317 22 -771 -66 -1220 -14 -69 -29 -141 -34 -160 -6 -19 -24 -93 -41
-165 -16 -71 -46 -184 -65 -250 -20 -66 -38 -128 -40 -137 -3 -10 -10 -18 -15
-18 -6 0 -7 5 -3 12 4 6 11 29 16 50 4 21 13 57 19 81 5 23 14 60 18 82 14 66
62 249 71 270 10 22 14 47 35 189 8 54 19 113 25 132 7 19 19 87 28 152 18
131 21 565 6 712 -9 83 -10 85 -36 88 -24 3 -28 0 -28 -20 0 -139 -34 -494
-51 -533 -4 -11 -8 -31 -8 -45 1 -43 -13 -140 -21 -135 -3 2 -14 -53 -23 -123
-16 -124 -21 -153 -52 -277 -35 -147 -41 -166 -49 -158 -5 4 -7 1 -4 -7 3 -8
1 -28 -4 -45 -4 -16 -10 -41 -13 -55 -13 -69 -80 -269 -94 -283 -6 -6 -3 14 5
44 8 30 22 79 30 109 45 162 60 222 100 405 163 752 152 1337 -33 1675 -190
349 -533 426 -1038 236 -111 -42 -332 -156 -452 -232 -28 -19 -56 -34 -62 -34
-5 0 -11 -4 -13 -8 -1 -5 -39 -33 -83 -62 -44 -30 -101 -70 -126 -89 -26 -20
-59 -45 -75 -56 -16 -11 -44 -34 -64 -50 -19 -17 -51 -42 -70 -57 -19 -14 -46
-36 -60 -48 -14 -12 -60 -52 -104 -88 -93 -80 -223 -200 -363 -336 l-102 -100
37 -42 c20 -24 98 -112 173 -196 246 -278 487 -585 749 -953 41 -58 87 -123
102 -143 l27 -38 178 -18 c188 -18 418 -47 568 -71 50 -8 164 -26 255 -41 236
-38 694 -132 750 -154 14 -5 84 -25 155 -44 380 -101 759 -235 1025 -363 197
-96 460 -253 550 -329 14 -12 57 -48 95 -81 78 -67 185 -183 233 -255 182
-268 204 -567 61 -835 -256 -480 -1000 -892 -2124 -1175 -44 -11 -83 -23 -87
-27 -4 -4 3 -47 17 -96 121 -440 196 -832 225 -1169 6 -70 9 -131 5 -134 -3
-3 -5 5 -5 18 0 12 -4 39 -9 59 -27 107 -41 185 -46 266 -3 50 -14 137 -25
195 -10 58 -21 123 -24 145 -3 22 -10 60 -16 85 -5 25 -17 86 -26 135 -9 50
-20 99 -25 110 -4 11 -20 70 -34 130 -14 61 -35 138 -45 171 -24 73 -24 88 -6
103 12 10 88 30 128 34 9 1 14 5 12 9 -6 9 65 23 73 14 4 -3 16 0 27 7 12 7
48 19 81 27 33 7 65 17 70 21 11 7 64 20 104 25 13 1 27 7 30 12 3 5 24 12 45
16 21 4 48 13 60 21 12 7 46 19 76 26 30 7 66 21 80 30 14 9 27 17 30 17 3 1
22 8 42 16 21 9 49 16 63 16 14 0 25 4 25 8 0 10 133 71 172 79 15 3 28 9 28
13 0 10 47 30 70 30 11 0 20 4 20 9 0 12 56 31 66 23 4 -4 4 -1 0 6 -4 7 0 15
11 19 10 4 26 15 36 24 10 9 31 19 47 23 29 5 43 15 104 69 17 15 38 30 47 32
10 3 34 21 55 40 l38 35 -32 0 c-18 0 -32 -4 -32 -9 0 -5 -19 -11 -42 -15 -98
-12 -125 -20 -163 -46 -22 -16 -65 -34 -95 -41 -30 -6 -62 -20 -70 -29 -8 -9
-34 -19 -58 -23 -24 -3 -51 -12 -60 -20 -20 -17 -109 -50 -134 -49 -10 0 -17
-4 -15 -10 1 -5 -18 -16 -43 -23 -70 -21 -301 -103 -308 -109 -3 -3 -16 -6
-29 -6 -13 0 -31 -4 -41 -10 -9 -5 -53 -19 -97 -30 -75 -20 -99 -27 -185 -51
-19 -6 -73 -18 -120 -28 -112 -24 -180 -41 -209 -53 -32 -12 -37 -4 -10 21 21
20 22 21 5 63 -9 24 -16 50 -16 57 0 7 -6 27 -13 44 -8 18 -26 68 -42 112 -15
44 -45 130 -67 190 -22 61 -48 133 -58 161 -10 28 -30 76 -44 105 -14 30 -37
86 -52 124 -25 68 -84 207 -106 252 -6 11 -8 27 -6 34 2 7 26 -39 52 -102 27
-63 55 -129 63 -148 70 -159 155 -380 249 -651 41 -118 78 -218 82 -222 7 -7
27 -3 122 22 19 5 89 23 155 40 134 36 489 148 605 192 656 250 1085 551 1231
863 42 89 52 132 55 242 3 97 -1 116 -47 225 -42 101 -93 173 -198 279 -131
131 -308 260 -486 353 -27 15 -63 34 -80 44 -34 20 -278 132 -288 132 -4 0
-30 11 -59 24 -29 13 -87 36 -128 51 -41 15 -100 36 -130 47 -165 61 -555 172
-745 213 -44 10 -118 26 -165 37 -47 11 -107 24 -135 29 -27 4 -115 22 -195
38 -80 16 -196 37 -257 46 -115 18 -160 37 -55 24 149 -19 220 -30 252 -39 19
-5 125 -25 235 -45 110 -20 215 -41 234 -47 19 -6 70 -18 115 -28 108 -25 197
-47 276 -71 36 -10 72 -19 80 -19 8 0 42 -8 75 -19 33 -10 87 -27 120 -36 33
-10 76 -23 95 -31 19 -7 67 -23 105 -35 72 -22 85 -26 145 -52 19 -8 46 -18
60 -22 14 -4 36 -14 50 -23 14 -9 35 -17 46 -18 12 -1 48 -14 80 -29 33 -15
68 -30 79 -34 11 -4 45 -20 75 -34 30 -15 60 -27 66 -27 6 0 28 -12 49 -26 21
-14 46 -23 57 -21 10 3 23 -2 31 -12 6 -10 29 -23 50 -30 20 -7 37 -17 37 -22
0 -5 9 -9 20 -9 11 0 20 -4 20 -10 0 -5 7 -10 15 -10 8 0 23 -8 34 -19 10 -10
29 -21 42 -24 13 -4 36 -17 50 -30 31 -30 69 -51 77 -43 10 10 -34 80 -57 91
-12 5 -21 14 -21 19 0 15 -42 56 -57 56 -15 0 -28 9 -71 51 -15 15 -47 37 -72
50 -25 13 -56 33 -70 45 -27 24 -160 102 -182 106 -7 2 -15 6 -18 9 -3 4 -43
23 -90 43 -47 21 -95 44 -107 52 -12 8 -29 14 -36 14 -8 0 -20 6 -26 14 -7 8
-28 17 -49 21 -20 4 -49 13 -64 21 -15 8 -29 14 -30 13 -2 -1 -22 8 -46 20
-23 12 -47 19 -51 16 -5 -3 -39 9 -75 26 -36 17 -70 28 -75 24 -6 -3 -28 3
-50 15 -22 11 -51 20 -64 20 -12 0 -27 4 -32 9 -6 5 -39 17 -75 26 -35 9 -74
22 -85 28 -11 6 -26 10 -34 8 -8 -1 -24 2 -35 7 -22 10 -146 43 -236 63 -30 7
-82 20 -114 31 -33 10 -72 18 -87 18 -16 0 -38 4 -51 9 -13 5 -54 14 -93 21
-38 6 -119 22 -180 35 -60 13 -137 26 -170 29 -33 4 -71 11 -85 16 -26 10
-370 55 -522 70 -47 4 -90 10 -95 13 -4 3 -72 10 -151 17 -78 6 -151 13 -162
15 -34 6 -316 24 -635 40 -365 18 -802 18 -1235 1 -179 -7 -327 -12 -329 -10
-2 2 7 8 20 13 30 11 50 32 99 101 22 30 46 63 55 73 8 9 15 19 15 22 0 3 4
11 10 18 12 15 82 104 130 165 19 25 40 52 45 62 6 9 17 24 25 33 8 9 20 22
25 29 6 7 25 30 43 51 18 21 29 43 26 49 -4 7 -2 8 4 4 11 -7 35 26 27 38 -3
3 -2 4 2 1 3 -3 12 3 19 13 7 9 16 14 19 10 6 -6 -60 -96 -86 -118 -3 -3 -41
-52 -84 -110 -44 -58 -85 -110 -91 -117 -28 -29 -224 -302 -224 -312 0 -8 40
-9 143 -4 247 14 1270 9 1525 -6 128 -8 234 -12 237 -10 3 4 -103 160 -132
194 -5 6 -24 32 -43 60 -19 27 -42 58 -52 70 -9 11 -65 83 -125 160 -204 263
-581 705 -602 705 -8 0 -36 -30 -186 -200 -60 -69 -116 -131 -123 -139 -7 -8
-38 -44 -68 -82 -55 -69 -72 -85 -80 -76 -3 2 10 20 28 40 43 46 88 99 113
132 11 15 29 37 41 50 11 12 31 35 43 51 36 46 188 210 288 310 50 51 89 95
86 98 -4 3 -1 6 5 6 14 0 57 42 65 64 4 9 13 16 22 16 8 0 15 7 15 16 0 9 9
18 20 21 11 3 20 10 20 15 0 11 55 68 65 68 10 0 30 23 38 43 3 9 12 17 18 17
6 0 31 19 56 43 43 41 91 86 148 137 16 14 32 24 37 22 5 -1 7 2 4 6 -6 11 28
45 48 48 7 1 24 12 38 25 14 13 50 47 79 74 30 28 71 59 92 69 20 11 35 21 32
24 -5 5 76 72 88 72 12 0 66 41 109 83 21 20 47 37 56 37 9 0 26 7 36 15 16
12 22 12 28 2 5 -8 8 -7 8 6 0 9 5 17 10 17 6 0 18 8 28 18 40 40 101 80 154
103 32 13 60 31 63 41 3 9 17 19 32 23 14 3 40 17 57 29 17 13 45 27 63 31 17
3 34 13 37 21 3 8 15 14 26 14 11 0 20 5 20 10 0 6 8 10 18 10 11 1 7 5 -12
13 -36 16 -106 10 -106 -9 0 -9 -12 -14 -32 -14 -18 -1 -44 -7 -58 -15 -14 -8
-35 -14 -47 -15 -13 0 -23 -3 -23 -8 0 -4 -15 -13 -32 -20 -18 -7 -41 -18 -50
-23 -10 -5 -28 -9 -41 -9 -13 0 -32 -9 -42 -20 -10 -11 -26 -20 -35 -20 -10 0
-28 -8 -41 -18 -13 -10 -39 -24 -56 -31 -18 -8 -33 -17 -33 -21 0 -6 -32 -19
-48 -20 -1 0 -9 -5 -18 -12 -47 -40 -78 -58 -99 -58 -8 0 -15 -6 -15 -12 0
-13 -29 -35 -105 -78 -22 -13 -49 -33 -60 -44 -35 -37 -102 -86 -109 -79 -3 3
-6 1 -6 -6 0 -7 -14 -17 -30 -23 -17 -5 -35 -19 -41 -29 -5 -10 -17 -19 -25
-19 -8 0 -12 -4 -9 -10 3 -5 1 -10 -5 -10 -6 0 -32 -20 -58 -45 -26 -25 -50
-45 -55 -45 -4 0 -5 -5 -2 -10 4 -6 2 -9 -3 -8 -5 2 -21 -8 -34 -22 -14 -14
-47 -43 -73 -65 -86 -72 -115 -98 -242 -222 -69 -68 -129 -123 -134 -123 -5 0
-9 -5 -9 -11 0 -5 -35 -46 -77 -89 -43 -43 -99 -103 -125 -132 -96 -107 -139
-156 -157 -179 -10 -13 -49 -55 -85 -93 -36 -37 -66 -71 -66 -75 0 -3 -20 -27
-45 -53 -25 -26 -45 -51 -45 -56 0 -4 -16 -26 -36 -48 -20 -21 -50 -57 -68
-79 -17 -22 -34 -41 -38 -43 -5 -2 -8 -10 -8 -18 0 -7 -9 -19 -20 -26 -11 -7
-20 -17 -20 -23 0 -5 -13 -23 -28 -40 -27 -29 -114 -139 -142 -181 -53 -77
-101 -142 -119 -161 -12 -12 -21 -26 -21 -30 0 -4 -13 -22 -28 -40 -15 -18
-39 -50 -54 -71 -32 -46 -23 -44 -303 -67 -99 -8 -213 -20 -254 -25 -67 -9
-92 -8 -80 4 4 4 328 38 513 53 l90 8 50 71 c67 94 84 117 126 173 20 25 53
71 74 101 152 213 552 696 770 929 l70 74 -132 129 c-73 72 -132 132 -132 134
0 20 42 -15 146 -121 l123 -125 36 31 c19 17 45 45 57 62 l22 30 -164 159
c-90 87 -166 158 -169 158 -3 0 -40 32 -81 71 -41 39 -86 77 -101 84 -15 8
-38 28 -52 45 -14 16 -33 30 -41 30 -8 0 -26 14 -38 31 -13 17 -59 55 -103 85
-131 89 -149 103 -170 123 -11 11 -45 32 -75 47 -30 15 -65 38 -77 51 -13 13
-38 31 -55 39 -18 8 -53 28 -78 44 -25 15 -53 29 -63 29 -10 1 -27 9 -38 19
-11 11 -39 25 -62 32 -23 8 -53 22 -67 31 -14 10 -42 20 -63 24 -20 4 -49 16
-63 28 -19 14 -45 21 -97 24 -96 6 -117 11 -117 28 0 8 -4 15 -10 15 -5 0 -10
-9 -10 -20 0 -12 7 -20 16 -20 9 0 18 -9 21 -20 4 -15 11 -19 24 -15 11 4 19
2 19 -4 0 -6 9 -11 20 -11 11 0 20 -4 20 -10 0 -5 9 -10 20 -10 11 0 20 -7 20
-15 0 -8 9 -15 20 -15 11 0 20 -4 20 -10 0 -5 7 -10 16 -10 9 0 33 -14 54 -30
25 -20 44 -28 56 -23 12 4 15 3 10 -5 -4 -7 -1 -12 7 -12 8 0 20 -7 27 -15 7
-8 21 -15 31 -15 9 0 27 -13 39 -30 12 -16 24 -29 28 -29 28 4 53 -5 78 -28
16 -15 28 -31 26 -36 -1 -5 2 -5 8 -2 6 4 44 -21 85 -54 40 -34 78 -61 83 -61
11 0 165 -120 170 -132 2 -5 21 -17 41 -28 21 -10 53 -36 71 -57 19 -21 35
-36 37 -33 2 3 31 -20 66 -51 34 -31 89 -80 122 -109 33 -29 65 -58 70 -64 6
-6 29 -26 53 -45 29 -23 40 -37 33 -44 -7 -7 -46 23 -122 92 -558 508 -1143
849 -1588 925 -109 18 -290 21 -377 5 -306 -56 -530 -304 -630 -698 -44 -172
-56 -284 -61 -540 -6 -254 2 -381 38 -641 28 -203 105 -579 154 -755 9 -33 27
-100 40 -148 13 -49 25 -90 27 -92 2 -3 60 7 128 21 291 58 856 146 920 143
41 -2 -28 -16 -190 -39 -80 -11 -172 -24 -205 -30 -33 -5 -89 -14 -125 -20
-36 -6 -87 -13 -115 -17 -27 -3 -54 -9 -60 -13 -5 -4 -35 -10 -65 -14 -30 -3
-64 -8 -75 -10 -130 -28 -253 -56 -267 -61 -27 -11 -21 10 7 25 22 12 24 18
19 49 -4 20 -13 52 -21 71 -9 19 -17 44 -19 55 -2 11 -15 61 -29 110 -42 142
-65 244 -71 308 -1 20 -6 42 -10 49 -14 22 -42 170 -50 258 -3 36 -10 70 -15
76 -5 6 -16 78 -24 160 -8 82 -20 187 -25 233 -6 46 -11 138 -13 205 -2 135
10 525 20 599 4 32 2 47 -6 47 -6 0 -11 -16 -11 -35 0 -19 -4 -35 -10 -35 -23
0 -50 -36 -50 -67 0 -17 -5 -35 -11 -39 -7 -4 -9 -21 -6 -40 3 -19 2 -36 -3
-39 -4 -3 -11 -24 -14 -47 -13 -88 -35 -321 -34 -361 0 -23 0 -104 -1 -180 0
-77 3 -146 8 -155 5 -10 11 -71 15 -137 7 -145 16 -215 27 -215 5 0 9 -15 9
-32 0 -45 20 -189 30 -213 5 -11 11 -38 15 -60 10 -60 12 -69 18 -85 3 -8 12
-51 22 -95 9 -44 22 -100 30 -125 7 -25 21 -82 32 -127 10 -46 21 -83 25 -83
5 0 8 -11 8 -25 0 -14 -3 -25 -8 -25 -6 0 -32 78 -47 145 -3 11 -20 79 -39
151 -19 72 -37 144 -40 160 -3 16 -17 81 -31 144 -84 388 -125 845 -105 1165
22 353 69 563 178 783 151 307 388 491 705 547 102 18 296 13 422 -9z m2625
-3007 c129 -6 260 -13 290 -14 154 -11 596 -50 720 -65 391 -46 390 -46 390
-62 0 -5 -8 -7 -17 -4 -25 7 -307 45 -458 61 -33 3 -68 8 -77 11 -10 3 -18 0
-18 -6 0 -10 48 -89 60 -100 17 -14 299 -485 385 -640 32 -58 72 -130 89 -160
58 -100 97 -180 88 -180 -5 0 -26 35 -48 78 -21 42 -42 79 -46 82 -4 3 -11 14
-15 25 -8 20 -80 150 -134 240 -16 28 -41 73 -55 100 -15 28 -30 52 -35 53 -5
2 -9 8 -9 14 0 6 -24 48 -52 95 -29 46 -58 91 -63 101 -75 128 -101 170 -113
185 -15 17 -30 40 -53 84 -8 15 -27 25 -61 32 -62 14 -168 14 -168 1 0 -5 4
-10 10 -10 5 0 7 -6 4 -14 -3 -8 6 -27 21 -43 21 -23 85 -122 168 -258 7 -11
21 -33 33 -50 30 -44 75 -127 71 -132 -2 -2 -46 63 -97 144 -50 82 -126 200
-168 264 l-77 117 -50 6 c-65 8 -332 23 -618 36 -403 18 -983 11 -1454 -16
l-111 -6 -160 -242 c-88 -132 -165 -252 -172 -266 -7 -14 -15 -20 -17 -13 -2
6 10 31 26 54 17 23 31 46 31 51 0 5 4 14 10 21 44 54 58 75 64 95 4 12 11 22
16 22 5 0 12 9 15 20 3 11 12 26 18 33 9 9 118 167 159 231 4 6 31 11 60 12
29 1 190 7 358 13 168 7 343 13 390 14 174 4 643 -3 870 -14z m-1887 -22 c-4
-7 -33 -48 -63 -91 -30 -43 -59 -86 -65 -95 -5 -9 -43 -68 -84 -131 -128 -199
-138 -214 -150 -237 -6 -13 -16 -23 -21 -23 -6 0 2 19 16 43 66 103 200 311
261 402 29 44 53 86 53 92 0 7 -12 10 -32 7 -18 -2 -82 -8 -143 -14 -268 -23
-680 -81 -979 -136 -105 -20 -217 -40 -248 -46 -62 -11 -66 -17 -47 -65 6 -15
17 -48 24 -73 19 -67 75 -222 155 -430 40 -102 76 -198 82 -215 6 -16 17 -39
25 -50 15 -23 17 -35 4 -35 -5 0 -15 17 -22 38 -6 20 -15 42 -19 47 -4 6 -20
42 -35 80 -14 39 -36 95 -48 125 -12 30 -22 58 -22 62 0 3 -3 10 -7 14 -5 4
-8 13 -8 21 0 7 -9 32 -19 56 -30 64 -61 150 -56 155 2 2 -7 26 -21 53 -13 27
-23 52 -22 56 1 5 -8 39 -20 77 -12 37 -22 70 -22 72 0 8 69 33 105 38 80 11
162 24 235 39 165 33 312 57 445 72 77 8 172 20 210 26 87 14 207 27 305 34
140 9 189 17 207 31 23 17 36 18 26 1z m-1758 -105 c-2 -3 -39 -13 -82 -24
-43 -11 -94 -24 -113 -29 -35 -10 -52 -15 -170 -44 -36 -9 -69 -21 -74 -26 -6
-5 -18 -9 -28 -9 -11 0 -64 -16 -120 -35 -55 -19 -105 -32 -111 -28 -6 3 -7 2
-4 -4 3 -5 -20 -17 -51 -27 -89 -28 -114 -37 -162 -59 -75 -32 -102 -43 -179
-73 -41 -16 -79 -33 -85 -39 -7 -5 -25 -17 -41 -26 -17 -8 -39 -20 -50 -26
-11 -6 -44 -21 -72 -34 -29 -12 -53 -26 -53 -30 0 -4 -13 -10 -29 -14 -16 -3
-42 -18 -57 -32 -15 -14 -43 -30 -61 -35 -21 -6 -33 -15 -33 -26 0 -10 -14
-23 -31 -31 -37 -16 -169 -141 -169 -159 0 -9 7 -11 22 -6 13 4 35 7 50 6 17
0 28 5 28 13 0 8 9 17 20 20 11 3 20 11 20 16 0 5 11 7 24 3 16 -4 25 -1 29
10 4 9 16 16 27 16 11 0 20 6 20 13 0 8 3 7 9 -2 8 -12 12 -10 21 10 11 25 58
49 93 49 9 0 17 5 17 10 0 6 6 10 14 10 7 0 19 6 25 14 6 7 30 16 53 19 22 3
44 10 47 15 5 9 65 38 169 83 17 8 32 18 32 22 0 5 5 5 10 2 6 -4 18 -1 27 7
9 7 18 11 20 9 3 -3 15 1 78 25 11 4 23 8 26 8 5 1 38 16 101 47 10 5 27 9 38
9 11 0 28 4 38 9 17 9 99 33 155 45 15 4 27 11 27 16 0 6 9 10 20 10 25 0 113
23 120 31 3 3 23 9 45 13 22 3 56 9 75 12 19 3 44 9 55 14 38 16 159 50 179
50 48 0 65 11 68 44 3 31 3 31 19 -14 9 -25 24 -67 33 -95 10 -27 22 -64 26
-81 4 -18 15 -47 24 -65 15 -29 56 -144 62 -174 2 -13 51 -140 70 -182 8 -17
14 -34 14 -37 0 -11 70 -189 97 -246 14 -30 46 -104 70 -165 24 -60 56 -135
71 -165 15 -30 27 -57 28 -60 0 -6 13 -32 92 -199 l54 -113 -33 -77 c-18 -42
-42 -92 -54 -111 -12 -19 -29 -57 -40 -85 -10 -27 -35 -84 -57 -126 -21 -42
-38 -83 -38 -90 0 -8 -9 -32 -19 -54 -61 -127 -120 -273 -191 -470 -33 -93
-65 -179 -70 -190 -12 -27 -91 -266 -128 -390 -16 -55 -40 -132 -51 -171 -12
-38 -23 -80 -24 -92 -1 -12 -4 -22 -8 -22 -3 0 -9 -17 -13 -37 -17 -103 -60
-287 -77 -331 -5 -13 -9 -42 -9 -66 0 -23 -6 -65 -14 -92 -8 -27 -17 -85 -21
-129 -4 -44 -10 -93 -15 -110 -5 -16 -12 -91 -15 -165 -3 -74 -8 -164 -10
-200 -3 -36 -1 -123 5 -195 5 -71 12 -173 15 -225 8 -125 9 -127 45 -122 l30
4 1 77 c3 189 7 316 13 354 3 23 8 89 11 147 4 58 11 121 16 140 5 19 9 52 9
73 0 21 7 69 16 105 9 37 20 83 24 102 5 19 14 71 20 115 7 44 20 107 30 140
20 68 33 123 50 210 7 33 19 69 26 80 8 11 14 37 14 58 0 21 7 48 16 61 8 13
16 35 18 48 1 12 5 30 8 38 4 8 18 56 32 107 14 51 30 101 35 112 6 11 11 30
11 43 0 13 4 28 9 33 6 6 21 49 35 97 14 48 32 100 39 115 11 22 45 115 52
143 5 16 19 51 41 96 13 28 24 58 24 67 0 9 4 18 9 21 5 3 14 26 20 51 6 25
16 45 21 45 6 0 10 9 10 20 0 20 26 84 61 151 10 20 19 43 19 51 0 8 13 39 29
70 15 31 31 64 34 75 4 10 10 25 15 33 9 15 21 41 67 145 14 33 29 67 34 75 5
8 6 31 4 50 -3 26 19 -9 85 -130 83 -154 162 -298 227 -415 15 -27 49 -87 76
-131 27 -45 49 -84 49 -87 0 -3 23 -40 51 -82 27 -42 53 -84 57 -93 10 -24 85
-136 94 -140 4 -2 16 -22 26 -46 11 -23 27 -49 37 -59 9 -10 15 -21 11 -24 -3
-4 -8 -4 -10 -2 -13 14 -135 210 -227 364 -60 99 -123 205 -142 235 -19 30
-56 98 -83 150 -27 52 -52 97 -55 100 -6 5 -86 150 -141 257 -36 69 -46 69
-68 3 -7 -22 -16 -40 -20 -40 -4 0 -7 -6 -7 -13 0 -7 -16 -47 -35 -87 -60
-127 -154 -354 -268 -650 -18 -47 -36 -87 -39 -90 -3 -3 -7 -14 -9 -25 -6 -46
-10 -62 -29 -105 -11 -25 -24 -61 -28 -80 -4 -19 -14 -46 -21 -60 -8 -14 -26
-63 -40 -110 -14 -47 -34 -114 -45 -150 -36 -117 -49 -162 -98 -360 -85 -340
-107 -461 -142 -775 -31 -280 -21 -615 26 -820 12 -53 78 -239 93 -265 112
-185 203 -265 362 -321 57 -20 84 -23 215 -23 137 0 161 3 268 32 65 17 160
48 210 68 214 85 502 250 707 406 170 129 246 189 360 285 162 137 490 450
490 467 0 7 -12 26 -27 43 -24 26 -167 184 -198 217 -6 6 -45 54 -88 106 -43
52 -88 106 -101 120 -33 36 -248 307 -301 382 -25 35 -95 131 -156 213 -61 83
-133 183 -160 223 -47 68 -52 72 -87 72 -59 0 -433 44 -687 80 -239 34 -563
94 -574 106 -8 8 67 -3 224 -31 235 -42 259 -46 340 -55 44 -5 105 -14 135
-20 30 -6 102 -15 160 -20 58 -5 128 -14 155 -19 28 -6 77 -13 110 -16 33 -2
82 -8 109 -11 l49 -6 -30 53 c-48 86 -77 127 -91 133 -15 7 -147 22 -267 31
-44 3 -91 10 -105 15 -14 5 -54 11 -90 15 -85 9 -182 22 -250 34 -30 5 -80 12
-110 16 -30 4 -64 10 -75 15 -11 5 -40 11 -65 14 -74 7 -136 23 -128 32 5 5
52 -3 313 -51 193 -36 703 -101 765 -98 20 1 33 -11 65 -60 82 -129 170 -262
180 -273 28 -32 44 -55 84 -116 24 -38 48 -68 52 -68 5 0 9 -5 9 -12 0 -12 80
-121 93 -126 4 -2 16 -20 27 -40 10 -21 29 -48 42 -62 33 -36 93 -112 104
-132 5 -9 23 -31 39 -50 17 -18 59 -69 94 -113 36 -44 70 -83 77 -88 7 -4 30
-31 51 -59 21 -29 45 -60 53 -69 8 -9 26 -30 39 -45 60 -72 168 -190 186 -204
11 -8 24 -14 28 -12 5 1 6 -2 2 -7 -3 -6 3 -16 15 -23 11 -7 20 -17 20 -23 0
-6 105 -114 234 -240 238 -234 324 -315 336 -315 4 0 14 -7 21 -17 8 -9 45
-41 84 -72 38 -30 78 -64 89 -76 11 -11 39 -33 63 -50 107 -76 141 -101 183
-136 25 -20 62 -44 82 -52 21 -9 50 -28 65 -42 16 -14 57 -42 91 -62 46 -26
60 -38 50 -44 -9 -6 -6 -9 11 -9 14 0 32 -6 40 -14 9 -7 40 -21 69 -31 29 -9
56 -23 59 -30 2 -8 19 -17 36 -21 18 -3 44 -15 59 -25 14 -11 30 -19 36 -19 5
0 39 -16 76 -35 37 -19 78 -35 91 -35 12 0 28 -7 35 -15 7 -8 25 -15 40 -15
15 0 49 -7 76 -15 66 -20 141 -19 161 1 21 21 3 34 -49 34 -24 0 -44 7 -55 20
-20 20 -133 75 -133 63 0 -3 -8 1 -17 9 -10 8 -40 25 -68 38 -27 12 -52 25
-55 29 -3 3 -41 24 -85 46 -72 35 -160 88 -192 115 -7 6 -16 10 -20 10 -5 0
-16 9 -26 20 -9 11 -22 20 -29 21 -7 0 -40 20 -73 44 -33 24 -91 65 -130 91
-38 26 -103 76 -142 112 -40 35 -73 61 -73 58 0 -4 -10 2 -22 14 -12 11 -27
20 -33 20 -6 0 -18 11 -25 25 -7 14 -17 25 -22 25 -4 0 -20 11 -35 25 -16 14
-41 36 -58 51 -160 138 -735 707 -735 727 0 7 -24 37 -75 91 -16 18 -47 52
-67 77 -20 24 -66 78 -101 119 -35 41 -103 125 -151 185 -94 118 -98 123 -135
176 -14 19 -33 40 -43 47 -10 7 -18 17 -18 22 0 4 -9 19 -20 32 -24 28 -171
225 -185 247 -29 46 -51 77 -61 88 -7 7 -22 29 -35 50 -13 21 -25 40 -29 43
-3 3 -24 34 -47 70 -24 36 -46 70 -50 75 -35 44 -330 509 -393 620 -10 17 -34
59 -55 95 -21 36 -53 94 -72 130 -20 36 -42 73 -51 83 -8 9 -11 17 -6 17 5 0
3 4 -4 8 -7 5 -34 52 -61 105 -26 53 -51 94 -56 89 -5 -4 -5 -1 -1 6 4 7 2 20
-6 29 -7 8 -24 37 -38 65 -14 27 -43 83 -64 124 -33 63 -37 79 -28 97 6 12 22
47 35 77 13 30 32 62 42 70 11 9 2 -16 -24 -68 -22 -45 -41 -89 -41 -98 0 -19
133 -276 256 -494 26 -47 54 -98 62 -115 8 -16 20 -37 27 -45 7 -8 26 -41 43
-72 17 -31 65 -113 106 -181 42 -69 76 -130 76 -136 0 -6 4 -11 9 -11 5 0 15
-12 22 -27 12 -24 53 -88 202 -314 33 -51 53 -59 151 -59 72 0 52 -8 -26 -11
-77 -2 -77 -3 -12 -94 49 -69 74 -96 83 -91 3 2 56 0 116 -5 228 -18 465 -24
960 -24 602 0 830 7 854 28 9 8 23 18 31 23 13 7 13 6 0 -13 -8 -11 -38 -54
-66 -94 -29 -41 -63 -87 -78 -102 -14 -15 -26 -30 -26 -33 0 -6 -47 -69 -112
-152 -21 -26 -46 -58 -57 -72 -11 -14 -49 -62 -85 -108 -36 -45 -66 -85 -66
-87 0 -3 -8 -13 -17 -23 -10 -11 -27 -30 -38 -43 -106 -128 -191 -226 -297
-345 -21 -22 -38 -44 -38 -48 0 -3 -25 -31 -55 -61 -30 -31 -55 -59 -55 -64 0
-14 100 -111 115 -111 7 0 17 9 20 20 3 11 12 20 18 20 7 1 28 23 47 50 19 28
43 53 53 56 9 3 15 9 13 13 -6 9 35 47 47 43 4 -1 7 4 7 11 0 12 49 69 163
192 20 22 37 43 37 47 0 3 18 26 40 50 22 24 48 52 59 63 10 11 21 28 24 38 4
9 11 17 17 17 5 0 10 5 10 10 0 6 9 21 21 33 11 12 30 35 42 51 12 15 32 38
43 50 12 12 34 42 50 67 15 24 35 52 44 61 19 21 28 33 65 83 17 22 35 46 42
55 16 20 54 73 96 135 19 28 43 59 54 70 10 11 25 34 33 52 8 17 17 30 21 27
4 -2 9 2 12 10 5 13 53 20 242 31 50 3 108 10 130 15 22 5 80 11 129 15 50 3
135 12 190 20 56 8 151 22 211 30 194 26 319 46 350 55 17 5 57 12 90 16 33 3
67 8 75 11 8 3 22 7 30 9 73 16 130 26 155 29 58 7 85 23 85 49 0 43 16 37 29
-12 8 -26 22 -72 33 -102 11 -30 24 -84 29 -119 5 -36 14 -69 19 -76 5 -6 18
-49 28 -96 10 -46 24 -94 30 -106 7 -12 12 -33 12 -47 0 -14 4 -45 10 -68 5
-24 14 -70 20 -103 6 -33 15 -76 20 -95 31 -126 78 -541 63 -560 -11 -13 -20
33 -31 156 -7 74 -26 217 -43 317 -17 100 -32 193 -34 207 -1 14 -5 32 -8 40
-4 8 -16 58 -27 110 -11 52 -25 113 -31 134 -6 22 -12 46 -14 55 -5 26 -55
211 -72 269 -12 39 -20 51 -32 48 -232 -62 -1000 -175 -1436 -211 -243 -20
-236 -19 -265 -62 -38 -57 -405 -545 -426 -568 -11 -11 -44 -51 -73 -90 -30
-38 -81 -101 -113 -140 -32 -38 -64 -77 -71 -85 -60 -73 -85 -101 -121 -140
-22 -25 -73 -81 -112 -125 -39 -44 -88 -98 -108 -120 l-37 -40 153 -150 c135
-132 270 -257 348 -323 517 -434 964 -695 1358 -793 370 -91 653 -38 852 161
158 157 247 359 296 664 14 89 28 171 30 184 7 34 24 26 24 -10 0 -18 7 -53
15 -78 8 -25 17 -66 20 -92 4 -32 11 -48 21 -48 8 0 14 9 14 19 0 11 4 22 9
26 5 3 17 29 27 58 9 28 23 56 30 60 8 4 14 21 14 37 0 17 5 30 12 30 15 0 5
-156 -18 -265 -86 -427 -258 -709 -528 -867 -292 -171 -651 -171 -1113 1 -82
30 -353 160 -425 204 -150 90 -228 141 -239 153 -6 8 -16 14 -21 14 -5 0 -32
17 -61 38 -219 161 -247 184 -241 194 4 7 3 8 -4 4 -7 -4 -34 11 -64 36 -173
143 -333 286 -526 473 -62 61 -117 111 -122 113 -4 2 -42 -30 -83 -70 -145
-142 -275 -265 -338 -319 -35 -30 -66 -56 -69 -59 -3 -3 -34 -30 -70 -60 -36
-30 -67 -57 -70 -60 -3 -3 -21 -17 -42 -32 -20 -15 -42 -33 -50 -40 -40 -38
-133 -105 -324 -233 -143 -97 -176 -117 -328 -200 -143 -78 -336 -155 -496
-196 -138 -36 -368 -50 -485 -30 -400 70 -668 419 -730 951 -20 167 -20 535 0
710 53 460 188 1020 372 1545 112 318 312 801 474 1144 27 56 49 109 49 116 0
11 -21 59 -122 275 -41 88 -65 141 -103 230 -16 36 -43 99 -61 140 -40 93 -63
151 -105 260 -17 47 -42 110 -55 140 -25 60 -79 212 -126 355 -17 50 -36 104
-43 121 l-14 32 -73 -18 c-293 -70 -674 -190 -923 -290 -822 -331 -1242 -750
-1165 -1161 43 -231 252 -466 610 -688 45 -28 84 -51 86 -51 2 0 23 -12 46
-26 121 -77 550 -253 851 -349 98 -32 176 -59 174 -61 -1 -2 -19 1 -38 6 -18
5 -79 19 -134 31 -55 12 -104 26 -110 31 -5 4 -16 8 -25 8 -9 0 -33 9 -55 20
-22 11 -51 20 -66 20 -34 0 -99 27 -99 41 0 5 -4 8 -10 4 -11 -7 -172 54 -182
69 -3 5 -12 11 -20 12 -41 6 -110 30 -162 55 -32 16 -63 29 -69 29 -5 0 -25
12 -44 26 -23 17 -51 27 -88 31 -30 3 -55 10 -55 14 0 5 -7 9 -15 9 -7 0 -18
6 -22 13 -4 8 -18 16 -30 19 -21 6 -23 3 -20 -26 1 -22 7 -33 17 -32 8 1 20
-12 28 -27 14 -29 91 -84 159 -113 80 -35 89 -39 107 -56 11 -10 24 -18 29
-18 4 0 56 -23 115 -51 179 -86 252 -119 262 -119 17 0 163 -51 259 -91 51
-21 102 -39 113 -39 11 0 31 -9 45 -20 14 -11 20 -20 13 -20 -17 0 -419 135
-510 172 -286 115 -502 220 -685 333 -96 59 -168 108 -185 125 -3 3 -38 32
-78 64 -74 60 -242 232 -242 248 0 5 -11 21 -24 35 -37 39 -112 198 -136 283
-23 85 -28 258 -9 337 61 255 218 466 511 686 200 150 535 325 848 444 82 32
322 115 335 117 6 1 24 7 40 13 43 18 467 135 533 148 20 4 32 13 32 23 1 15
3 14 15 -2 8 -11 13 -22 10 -24z m3161 -476 c345 -61 634 -278 794 -596 152
-302 147 -699 -13 -990 -156 -283 -389 -466 -702 -552 -104 -29 -342 -36 -459
-13 -453 85 -802 436 -881 885 -103 583 276 1137 860 1260 110 23 288 26 401
6z m-1804 -34 c-7 -2 -12 -8 -12 -14 0 -6 -10 -25 -23 -42 -12 -17 -31 -49
-42 -71 -11 -22 -25 -47 -31 -55 -6 -8 -24 -37 -39 -65 -15 -27 -45 -80 -66
-117 -21 -36 -39 -70 -39 -73 0 -4 -8 -19 -19 -33 -33 -47 -71 -119 -265 -497
l-56 -110 1 46 c2 37 -8 67 -48 150 -28 57 -60 129 -73 159 -12 30 -26 60 -31
65 -14 18 -68 165 -60 165 4 0 19 -28 33 -62 35 -85 106 -243 157 -353 l43
-89 67 129 c121 232 164 310 172 313 5 2 9 9 9 15 0 9 185 336 255 451 11 18
31 52 45 75 13 23 26 37 29 30 2 -7 -1 -15 -7 -17z m4288 -21 c-4 -17 -24 -67
-44 -113 -20 -46 -36 -87 -36 -91 0 -3 -12 -32 -26 -64 -14 -32 -33 -74 -41
-93 -9 -19 -33 -72 -54 -117 -22 -44 -39 -83 -39 -86 0 -3 -26 -59 -57 -124
-32 -65 -61 -125 -64 -134 -5 -11 15 -64 57 -150 36 -74 65 -135 64 -137 -1
-1 11 -27 25 -57 15 -30 25 -58 23 -64 -1 -5 -44 79 -95 187 -95 202 -101 226
-66 260 7 7 13 20 13 28 0 8 11 34 23 57 13 23 25 45 26 49 5 25 81 189 95
206 5 8 11 22 13 32 1 10 16 48 34 86 17 38 37 83 45 101 8 17 14 34 14 38 0
4 7 23 16 43 9 21 20 46 24 57 21 52 51 115 54 115 3 0 1 -13 -4 -29z m-590
-812 c9 -16 9 -29 -1 -52 -19 -51 -62 -142 -70 -147 -3 -3 -18 -30 -33 -60
-15 -30 -35 -69 -45 -86 -10 -16 -22 -41 -26 -55 -4 -13 -11 -26 -15 -29 -7
-5 -170 -297 -170 -305 0 -2 -18 -33 -40 -67 -22 -35 -40 -69 -40 -75 0 -7 -4
-13 -10 -13 -5 0 -10 -5 -10 -11 0 -14 -41 -72 -46 -66 -3 2 13 33 34 68 21
35 52 89 69 119 17 30 50 89 73 130 95 168 205 375 273 514 36 74 47 107 43
128 -7 33 -1 36 14 7z m100 -205 c0 -8 5 -14 10 -14 6 0 10 -6 10 -14 0 -8 25
-68 56 -133 78 -166 98 -209 129 -283 16 -36 43 -99 62 -141 18 -42 33 -81 33
-86 0 -6 14 -40 30 -76 17 -37 30 -72 30 -79 0 -11 30 -81 52 -122 5 -10 11
-26 13 -35 2 -9 14 -41 26 -71 11 -30 24 -68 26 -85 3 -16 10 -36 16 -44 15
-17 37 -81 37 -104 0 -11 4 -15 12 -11 6 4 8 3 5 -3 -4 -6 0 -34 9 -63 19 -66
14 -80 -31 -80 -19 0 -35 -4 -35 -9 0 -4 -29 -11 -64 -13 -35 -3 -70 -9 -77
-14 -8 -5 -25 -10 -39 -11 -37 -3 -143 -19 -255 -38 -55 -9 -127 -21 -160 -25
-33 -5 -84 -14 -114 -20 -29 -5 -75 -10 -102 -10 -26 0 -70 -4 -96 -10 -61
-13 -187 -27 -388 -45 -198 -18 -197 -18 -158 3 29 16 52 40 78 84 9 16 86
132 167 256 21 31 38 62 38 69 0 6 4 13 8 15 4 2 36 48 70 103 33 55 65 105
69 110 4 6 9 17 11 25 2 8 11 24 21 35 18 20 76 118 125 210 15 28 40 73 57
100 16 28 33 60 39 73 5 12 14 22 20 22 5 0 10 8 10 18 0 10 4 22 10 28 5 5
32 53 59 105 51 102 82 152 87 146 8 -7 -202 -391 -331 -605 -6 -9 -23 -39
-40 -67 -16 -27 -32 -52 -35 -55 -4 -3 -9 -13 -13 -23 -8 -22 -238 -389 -333
-531 -40 -61 -72 -112 -70 -114 13 -13 796 86 1066 135 188 33 395 75 400 80
10 9 -207 614 -283 789 -14 32 -58 133 -97 224 -91 211 -153 340 -162 340 -4
0 -26 -36 -49 -81 -22 -45 -43 -79 -46 -75 -6 6 56 137 70 147 11 8 12 37 2
73 -6 21 -5 27 4 22 6 -4 11 -14 11 -22z m-1158 -1643 l-17 -30 -135 -4 c-564
-20 -865 -26 -1050 -22 -415 10 -815 27 -845 36 -20 6 5 7 75 4 58 -2 229 -9
380 -16 310 -13 1148 -7 1405 11 141 9 162 13 174 30 21 31 32 23 13 -9z"/>
<path d="M8550 9170 c0 -5 -4 -10 -10 -10 -5 0 -26 -17 -45 -37 -44 -48 -41
-74 14 -130 23 -22 41 -38 41 -35 0 3 16 -16 36 -41 20 -26 40 -44 45 -41 5 3
6 -1 3 -9 -3 -8 13 -32 36 -55 22 -23 40 -45 40 -48 0 -3 12 -19 28 -34 15
-16 43 -44 62 -64 19 -20 32 -36 29 -36 -4 0 7 -15 25 -34 17 -19 42 -53 56
-75 14 -22 30 -41 37 -41 6 0 14 -8 17 -17 3 -10 26 -40 51 -68 25 -27 54 -66
64 -85 11 -19 33 -48 51 -65 18 -16 40 -46 51 -67 10 -20 33 -51 50 -70 17
-18 50 -62 74 -98 43 -65 76 -109 106 -140 12 -12 42 -19 114 -24 54 -3 100
-4 102 -2 5 5 -39 74 -79 126 -11 14 -54 73 -97 133 -43 59 -81 104 -86 100
-4 -5 -5 -2 -1 5 4 6 1 18 -6 26 -7 7 -59 73 -116 147 -148 193 -174 224 -184
221 -5 -1 -7 1 -4 6 5 8 -26 50 -119 158 -90 106 -217 249 -236 266 -11 9 -19
19 -19 23 0 8 -116 125 -124 125 -3 0 -6 -4 -6 -10z"/>
<path d="M7240 4151 c0 -31 466 -642 660 -865 117 -135 277 -310 287 -313 10
-4 254 263 363 397 25 30 48 57 51 60 3 3 29 34 58 70 29 36 78 96 109 134 90
111 382 500 382 510 0 4 -15 5 -32 2 -18 -4 -301 -9 -628 -13 -549 -5 -839 1
-1162 24 -66 4 -88 3 -88 -6z"/>
<path d="M8010 2745 c-17 -24 -37 -48 -44 -52 -8 -4 -55 -47 -106 -95 -51 -49
-96 -88 -101 -88 -5 0 -14 -12 -19 -26 -6 -14 -14 -23 -18 -20 -5 3 -29 -17
-53 -44 -24 -27 -49 -50 -55 -50 -6 0 -17 -11 -24 -25 -7 -14 -19 -25 -25 -25
-12 0 -134 -105 -148 -127 -4 -7 -12 -13 -17 -13 -9 0 -23 -11 -87 -69 -21
-19 -35 -25 -40 -18 -4 6 -9 2 -14 -11 -5 -12 -15 -22 -24 -22 -8 0 -15 -6
-15 -13 0 -7 -16 -21 -35 -30 -19 -9 -35 -21 -35 -27 0 -5 -6 -10 -14 -10 -7
0 -21 -11 -30 -25 -9 -14 -25 -25 -35 -25 -10 0 -32 -15 -48 -33 -16 -18 -59
-50 -96 -71 -37 -20 -78 -48 -92 -62 -13 -13 -27 -24 -30 -24 -18 0 -85 -57
-85 -72 0 -9 -8 -22 -17 -27 -10 -6 -13 -11 -8 -11 6 0 4 -4 -4 -9 -8 -5 5 -7
35 -4 28 3 58 14 70 24 11 11 28 19 37 19 9 0 33 11 53 25 20 14 55 30 78 36
22 6 53 22 69 35 16 13 34 24 42 24 7 0 19 7 26 16 15 18 58 38 77 35 6 -1 12
3 12 8 0 16 73 80 91 81 9 0 24 9 34 20 10 11 20 18 23 15 3 -2 15 7 28 20 13
14 27 25 32 25 6 0 13 7 16 16 4 9 13 14 21 10 9 -3 15 0 15 9 0 7 8 16 18 19
9 3 37 24 61 46 24 22 45 40 47 40 2 0 12 8 22 18 11 9 34 28 52 42 18 14 45
37 61 52 16 14 29 24 29 22 0 -6 38 28 109 99 32 31 60 57 63 57 3 0 41 35 84
78 44 42 93 89 110 103 17 14 38 36 47 50 16 23 15 25 -33 77 -28 28 -56 52
-64 52 -8 0 -29 -20 -46 -45z"/>
<path d="M8123 6927 c-24 -6 -43 -14 -43 -19 0 -4 -13 -8 -29 -8 -15 0 -49
-11 -75 -25 -25 -13 -47 -24 -49 -22 -4 4 -122 -58 -125 -65 -2 -5 -10 -8 -19
-8 -8 0 -33 -19 -56 -42 -23 -24 -47 -41 -54 -40 -6 1 -14 -6 -18 -17 -3 -11
-26 -41 -50 -68 -25 -26 -45 -51 -45 -55 0 -12 -61 -98 -69 -98 -5 0 -16 -27
-25 -60 -9 -33 -21 -60 -25 -60 -11 0 -37 -107 -50 -203 -23 -166 -8 -327 39
-442 68 -161 134 -267 213 -342 31 -29 61 -53 67 -53 5 0 10 -6 10 -14 0 -7
13 -19 30 -26 26 -11 39 -20 86 -59 20 -16 73 -41 89 -41 8 0 15 -5 15 -10 0
-6 11 -8 25 -6 14 3 28 -1 32 -8 25 -39 229 -69 387 -56 110 8 246 37 246 51
0 4 14 11 32 14 31 7 94 38 113 56 5 5 15 9 23 9 31 0 202 146 202 173 0 11
47 57 58 57 6 0 12 10 16 23 3 13 19 38 36 55 16 18 30 35 30 39 0 4 17 52 39
107 43 114 69 290 57 387 -4 30 -10 95 -15 144 -5 59 -16 107 -31 140 -60 131
-75 160 -82 163 -4 2 -8 10 -8 18 0 9 -19 35 -42 60 -23 24 -51 58 -62 74 -12
16 -28 30 -36 30 -9 0 -22 10 -30 22 -37 55 -150 138 -186 138 -17 0 -54 20
-69 36 -5 7 -28 15 -50 19 -21 4 -51 13 -66 21 -36 18 -375 27 -436 11z"/>
</g>
</svg>
